# xmcd
#
# Track frame offsets:
#	150
#	12437
#	23292
#	36600
#	53942
#	73775
#	95502
#	112442
#	126835
#	145247
#	163060
#	172830
#	187787
#	203150
#	215200
#	239872
#
# Disc length: 3471 seconds
#
# Revision: 2
# Processed by: cddbd v1.4PL0 Copyright (c) Steve Scherf et al.
# Submitted via: audiograbber 1.81.03
#
DISCID=f30d8d10
DTITLE=Bob Kirkpatrick - Drive Across Texas
DYEAR=1900
DGENRE=
TTITLE0=Remember (short version)
TTITLE1=Different Strokes
TTITLE2=She's In Love
TTITLE3=Too Much Time
TTITLE4=Born In Louisiana
TTITLE5=Been Around Too Long
TTITLE6=I Did Her Wrong
TTITLE7=Dallas Woman
TTITLE8=Drove All Night
TTITLE9=A Room By Yourself
TTITLE10=We'll Be OK
TTITLE11=Please Don't Waste My Time
TTITLE12=Drive Across Texas
TTITLE13=Tried So Hard (To Leave You)
TTITLE14=Remember (long version)
TTITLE15=Black Night
EXTD=
EXTT0=
EXTT1=
EXTT2=
EXTT3=
EXTT4=
EXTT5=
EXTT6=
EXTT7=
EXTT8=
EXTT9=
EXTT10=
EXTT11=
EXTT12=
EXTT13=
EXTT14=
EXTT15=
PLAYORDER=
